<?xml version="1.0" encoding="utf-8"?>
<!-- Generator: Adobe Illustrator 17.1.0, SVG Export Plug-In . SVG Version: 6.00 Build 0)  -->
<!DOCTYPE svg PUBLIC "-//W3C//DTD SVG 1.1//EN" "http://www.w3.org/Graphics/SVG/1.1/DTD/svg11.dtd">
<svg version="1.1" id="Layer_1" xmlns="http://www.w3.org/2000/svg" xmlns:xlink="http://www.w3.org/1999/xlink" x="0px" y="0px"
	 viewBox="0 0 108 108" enable-background="new 0 0 108 108" xml:space="preserve">
<rect x="288" fill="#D2EDF3" stroke="#329999" stroke-miterlimit="10" width="108" height="108"/>
<rect x="144" fill="#D2EDF3" stroke="#329999" stroke-miterlimit="10" width="108" height="108"/>
<rect fill="#D2EDF3" stroke="#329999" stroke-miterlimit="10" width="108" height="108"/>
<rect x="21.667" y="79.667" fill="#329999" width="63.667" height="23"/>
<rect x="166.333" y="79.667" fill="#329999" width="61.333" height="23"/>
<rect x="311" y="79.667" fill="#329999" width="59.333" height="23"/>
<g>
	<text transform="matrix(1 0 0 1 39.2339 18.413)" font-family="'Avenir-Light'" font-size="10.417">BASIC</text>
</g>
<text transform="matrix(1 0 0 1 159.8795 18.4126)" font-family="'Avenir-Light'" font-size="10.417">PROFESSIONAL</text>
<g>
	<text transform="matrix(1 0 0 1 314.5047 18.4127)" font-family="'Avenir-Light'" font-size="10.417">UNLIMITED</text>
</g>
<text transform="matrix(0.583 0 0 0.583 11.3661 54.4576)" font-family="'Avenir-Light'" font-size="45.987">$</text>
<text transform="matrix(1 0 0 1 25.307 69.7711)" font-family="'Avenir-Light'" font-size="45.987" letter-spacing="-2">25</text>
<text transform="matrix(1 0 0 1 67.6141 69.7711)" font-family="'Avenir-Light'" font-size="10">/month</text>
<g>
	<text transform="matrix(0.583 0 0 0.583 153.5266 54.4577)" font-family="'Avenir-Light'" font-size="45.987">$</text>
	<text transform="matrix(1 0 0 1 167.4676 69.7712)" font-family="'Avenir-Light'" font-size="45.987" letter-spacing="-1">6</text>
	<text transform="matrix(1 0 0 1 189.5408 69.7712)" font-family="'Avenir-Light'" font-size="45.987">0</text>
	<text transform="matrix(1 0 0 1 213.4539 69.7712)" font-family="'Avenir-Light'" font-size="10">/month</text>
</g>
<g>
	<text transform="matrix(0.583 0 0 0.583 297.9866 52.9579)" font-family="'Avenir-Light'" font-size="45.987">$</text>
	<text transform="matrix(1 0 0 1 311.9275 68.2714)" font-family="'Avenir-Light'" font-size="45.987" letter-spacing="-2">9</text>
	<text transform="matrix(1 0 0 1 333.0813 68.2714)" font-family="'Avenir-Light'" font-size="45.987">5</text>
	<text transform="matrix(1 0 0 1 356.9939 68.2714)" font-family="'Avenir-Light'" font-size="10">/month</text>
</g>
<g>
	<g>
		<text transform="matrix(1 0 0 1 29.771 89.4906)" font-family="'MyriadPro-Regular'" font-size="8.4555">TRY 5 &amp; DIME </text>
	</g>
	<text transform="matrix(1 0 0 1 29.7705 99.1749)" font-family="'MyriadPro-Regular'" font-size="11.94">FOR FREE</text>
</g>
<g>
	<g>
		<text transform="matrix(1 0 0 1 173.7714 89.4909)" font-family="'MyriadPro-Regular'" font-size="8.4555">TRY 5 &amp; DIME </text>
	</g>
	<text transform="matrix(1 0 0 1 173.7709 99.1752)" font-family="'MyriadPro-Regular'" font-size="11.94">FOR FREE</text>
</g>
<g>
	<g>
		<text transform="matrix(1 0 0 1 317.7711 89.4906)" font-family="'MyriadPro-Regular'" font-size="8.4555">TRY 5 &amp; DIME </text>
	</g>
	<text transform="matrix(1 0 0 1 317.7706 99.175)" font-family="'MyriadPro-Regular'" font-size="11.94">FOR FREE</text>
</g>
</svg>
