<?xml version="1.0" encoding="utf-8"?>
<!-- Generator: Adobe Illustrator 17.1.0, SVG Export Plug-In . SVG Version: 6.00 Build 0)  -->
<!DOCTYPE svg PUBLIC "-//W3C//DTD SVG 1.1//EN" "http://www.w3.org/Graphics/SVG/1.1/DTD/svg11.dtd">
<svg version="1.1" id="Layer_1" xmlns="http://www.w3.org/2000/svg" xmlns:xlink="http://www.w3.org/1999/xlink" x="0px" y="0px"
	 viewBox="0 0 33.25 11.375" enable-background="new 0 0 33.25 11.375" xml:space="preserve">
<g>
	<g>
		<g>
			<path d="M13.862,5.313h1.104v0.311h-0.793v0.531c0.005,0.188,0.005,0.39,0,0.609c-0.005,0.218-0.054,0.427-0.147,0.624
				l0.505,0.816l-0.249,0.171l-0.413-0.676c-0.14,0.181-0.317,0.325-0.529,0.431c-0.213,0.106-0.444,0.159-0.693,0.159
				c-0.213,0-0.412-0.04-0.596-0.12c-0.185-0.081-0.345-0.188-0.483-0.323c-0.138-0.134-0.247-0.294-0.327-0.478
				c-0.081-0.184-0.121-0.382-0.121-0.595c0-0.187,0.031-0.364,0.093-0.532c0.062-0.168,0.151-0.318,0.266-0.451
				c0.114-0.132,0.248-0.242,0.402-0.33c0.153-0.088,0.321-0.147,0.503-0.179l-0.556-0.909c-0.094-0.155-0.16-0.316-0.199-0.481
				c-0.039-0.166-0.046-0.329-0.02-0.49c0.026-0.16,0.085-0.311,0.179-0.451c0.093-0.14,0.226-0.261,0.396-0.365
				c0.145-0.088,0.294-0.141,0.447-0.159s0.302-0.014,0.447,0.012s0.281,0.067,0.408,0.125c0.127,0.057,0.24,0.116,0.338,0.179
				l-0.132,0.264c-0.093-0.052-0.193-0.103-0.299-0.152c-0.106-0.049-0.215-0.085-0.326-0.108c-0.111-0.023-0.224-0.03-0.338-0.02
				c-0.114,0.01-0.226,0.049-0.334,0.116c-0.279,0.176-0.435,0.396-0.466,0.661c-0.031,0.264,0.031,0.523,0.188,0.777l1.634,2.642
				c0.075-0.129,0.113-0.272,0.113-0.428V5.313z M11.43,6.786c0,0.166,0.031,0.32,0.094,0.465c0.062,0.145,0.148,0.271,0.255,0.379
				c0.107,0.108,0.235,0.194,0.384,0.256c0.149,0.062,0.31,0.093,0.483,0.093c0.23,0,0.435-0.054,0.616-0.162
				c0.18-0.107,0.323-0.248,0.427-0.421l-1.118-1.802c-0.163,0.015-0.313,0.055-0.453,0.12c-0.139,0.065-0.26,0.149-0.362,0.252
				c-0.103,0.104-0.182,0.226-0.24,0.368C11.458,6.475,11.43,6.625,11.43,6.786z"/>
		</g>
	</g>
	<g>
		<path d="M18.59,8.075V7.921c-0.005,0.015-0.031,0.043-0.077,0.084c-0.046,0.041-0.111,0.083-0.195,0.126
			c-0.084,0.043-0.185,0.082-0.302,0.115c-0.117,0.033-0.25,0.05-0.398,0.05c-0.214,0-0.416-0.04-0.604-0.119
			c-0.189-0.079-0.352-0.188-0.49-0.325s-0.247-0.298-0.325-0.482c-0.08-0.184-0.119-0.377-0.119-0.582s0.039-0.396,0.119-0.578
			c0.079-0.181,0.188-0.341,0.325-0.479s0.301-0.246,0.49-0.325c0.188-0.079,0.39-0.119,0.604-0.119
			c0.127,0,0.249,0.018,0.364,0.054s0.215,0.076,0.302,0.122c0.086,0.046,0.157,0.092,0.21,0.138s0.085,0.076,0.096,0.092
			c-0.01-0.041-0.023-0.081-0.038-0.119c-0.016-0.039-0.028-0.078-0.039-0.119V3.092h-0.505V2.487h1.14v5.136h0.582v0.604h-1.14
			V8.075z M16.715,6.788c0,0.25,0.083,0.46,0.25,0.631c0.167,0.171,0.383,0.256,0.649,0.256c0.267,0,0.483-0.085,0.65-0.256
			c0.166-0.171,0.25-0.381,0.25-0.631c0-0.255-0.083-0.465-0.25-0.631c-0.167-0.166-0.383-0.249-0.65-0.249
			c-0.266,0-0.483,0.083-0.649,0.249C16.798,6.323,16.715,6.534,16.715,6.788z"/>
		<path d="M20.419,7.623h0.536V5.962h-0.536V5.357h1.171v2.266h0.528v0.604h-1.699V7.623z M20.886,4.247
			c0-0.117,0.041-0.214,0.123-0.291c0.082-0.077,0.173-0.115,0.275-0.115c0.097,0,0.186,0.039,0.268,0.115
			c0.082,0.076,0.123,0.173,0.123,0.291c0,0.118-0.041,0.213-0.123,0.287c-0.082,0.074-0.171,0.111-0.268,0.111
			c-0.102,0-0.194-0.037-0.275-0.111C20.927,4.461,20.886,4.365,20.886,4.247z"/>
		<path d="M27.231,7.623h0.582V6.431c-0.011-0.138-0.061-0.257-0.149-0.357c-0.09-0.1-0.231-0.155-0.425-0.165
			c-0.133,0-0.259,0.023-0.379,0.069c-0.12,0.046-0.226,0.111-0.317,0.193c-0.092,0.083-0.166,0.18-0.222,0.293
			c-0.056,0.113-0.084,0.236-0.084,0.37v0.789h0.482v0.604h-1.699V7.623h0.582V6.431c-0.01-0.138-0.06-0.257-0.149-0.357
			c-0.089-0.1-0.231-0.155-0.425-0.165c-0.133,0-0.259,0.023-0.379,0.069c-0.12,0.046-0.226,0.111-0.317,0.193
			c-0.092,0.083-0.166,0.18-0.222,0.293c-0.056,0.113-0.084,0.236-0.084,0.37v0.789h0.482v0.604h-1.699V7.623h0.582V5.962h-0.505
			V5.357h1.064v0.069c0.01,0.123,0.019,0.233,0.027,0.333s0.017,0.21,0.027,0.333c0.107-0.245,0.269-0.438,0.486-0.578
			c0.217-0.14,0.471-0.215,0.762-0.226c0.28,0,0.506,0.07,0.677,0.21c0.171,0.141,0.272,0.325,0.302,0.555
			c0.112-0.234,0.275-0.418,0.49-0.551c0.214-0.133,0.462-0.204,0.742-0.214c0.301,0,0.538,0.079,0.712,0.237
			s0.266,0.365,0.275,0.62v1.478h0.482v0.604h-1.699V7.623z"/>
		<path d="M32.19,6.559c-0.347,0.127-0.692,0.255-1.037,0.383c-0.344,0.127-0.689,0.255-1.037,0.382
			c0.077,0.107,0.178,0.193,0.303,0.256c0.125,0.064,0.267,0.096,0.425,0.096c0.234,0,0.429-0.082,0.582-0.245l0.39,0.459
			c-0.127,0.128-0.272,0.227-0.436,0.299c-0.164,0.071-0.342,0.107-0.536,0.107c-0.214,0-0.415-0.04-0.601-0.119
			c-0.187-0.079-0.349-0.188-0.486-0.325s-0.246-0.297-0.325-0.479s-0.118-0.376-0.118-0.585c0-0.204,0.039-0.398,0.118-0.582
			s0.188-0.343,0.325-0.479s0.3-0.242,0.486-0.321c0.186-0.079,0.387-0.119,0.601-0.119c0.158,0,0.31,0.032,0.455,0.096
			s0.275,0.152,0.391,0.264s0.216,0.246,0.303,0.402C32.078,6.205,32.144,6.375,32.19,6.559z M30.843,5.909
			c-0.26,0-0.472,0.078-0.635,0.233c-0.164,0.156-0.251,0.351-0.261,0.585c0.24-0.087,0.479-0.175,0.716-0.264
			s0.476-0.177,0.716-0.264c-0.072-0.086-0.152-0.157-0.241-0.21C31.048,5.935,30.951,5.909,30.843,5.909z"/>
	</g>
	<circle cx="6.198" cy="5.417" r="4.098"/>
	<g>
		<defs>
			<circle id="SVGID_1_" cx="6.198" cy="5.417" r="4.098"/>
		</defs>
		<clipPath id="SVGID_2_">
			<use xlink:href="#SVGID_1_"  overflow="visible"/>
		</clipPath>
		<g clip-path="url(#SVGID_2_)">
			<g>
				<path fill="#FFFFFF" d="M8.899,4.596c0.28,0,0.542,0.047,0.786,0.142c0.243,0.094,0.454,0.228,0.631,0.399
					c0.177,0.172,0.317,0.378,0.42,0.618c0.103,0.241,0.155,0.504,0.155,0.79c0,0.304-0.056,0.58-0.167,0.829
					c-0.112,0.249-0.265,0.462-0.459,0.64C10.069,8.19,9.84,8.328,9.577,8.425S9.034,8.571,8.736,8.571
					c-0.435,0-0.827-0.103-1.176-0.309s-0.612-0.481-0.79-0.824l0.473-0.412c0.16,0.263,0.373,0.475,0.64,0.635
					c0.266,0.16,0.554,0.24,0.863,0.24c0.194,0,0.376-0.033,0.545-0.099s0.315-0.157,0.438-0.274
					c0.123-0.118,0.219-0.259,0.288-0.425s0.103-0.349,0.103-0.549c0-0.189-0.034-0.364-0.103-0.524S9.853,5.732,9.736,5.617
					C9.619,5.503,9.48,5.414,9.32,5.351S8.988,5.257,8.805,5.257c-0.246,0-0.477,0.054-0.691,0.163
					C7.899,5.529,7.723,5.683,7.585,5.883H6.907c0.005-0.028,0.02-0.102,0.043-0.219c0.022-0.117,0.051-0.26,0.086-0.429
					C7.07,5.066,7.107,4.879,7.147,4.673s0.08-0.415,0.12-0.627c0.097-0.492,0.206-1.044,0.326-1.657h2.962v0.695H8.152l-0.369,1.94
					c0.126-0.132,0.284-0.236,0.472-0.313C8.444,4.634,8.659,4.596,8.899,4.596z"/>
			</g>
		</g>
	</g>
</g>
</svg>
